HIERARCHY
ROOT Joint1
{
	OFFSET 0.000000 0.000000 0.000000
	CHANNELS 6 Xposition Yposition Zposition Xrotation Yrotation Zrotation
	JOINT Joint2
	{
		OFFSET -0.000000 0.000000 1.456275
		CHANNELS 6 Xposition Yposition Zposition Xrotation Yrotation Zrotation
		JOINT Joint3
		{
			OFFSET -0.000000 0.000002 1.471446
			CHANNELS 6 Xposition Yposition Zposition Xrotation Yrotation Zrotation
			JOINT Joint4
			{
				OFFSET 0.625745 0.000000 0.917755
				CHANNELS 6 Xposition Yposition Zposition Xrotation Yrotation Zrotation
				JOINT Joint5
				{
					OFFSET -0.629534 0.000001 0.940221
					CHANNELS 6 Xposition Yposition Zposition Xrotation Yrotation Zrotation
					JOINT Joint6
					{
						OFFSET -0.000001 0.113772 1.960660
						CHANNELS 6 Xposition Yposition Zposition Xrotation Yrotation Zrotation
						JOINT Joint7
						{
							OFFSET -0.669733 -0.113771 0.388340
							CHANNELS 6 Xposition Yposition Zposition Xrotation Yrotation Zrotation
							End Site
							{
								OFFSET 0.005509 0.005509 0.438980
							}
						}
					}
				}
			}
		}
	}
}
MOTION
Frames: 12
Frame Time: 0.041667
0.000000 0.000000 0.000000 -0.000000 1.019410 62.393560 -0.000000 0.000000 1.456275 -0.000002 29.230867 -0.000001 -0.000000 0.000002 1.471446 -0.000004 -1.133466 -71.640201 0.625745 0.000001 0.917755 0.000004 123.852517 -0.000001 -0.629534 0.000001 0.940221 0.000003 1.709736 -5.394184 -0.000001 0.113772 1.960660 -88.303896 63.879201 -0.000001 -0.669733 -0.113771 0.388340 0.212590 2.987971 70.527215 
0.000000 0.000000 0.000000 -0.000000 1.019410 64.292243 -0.000000 0.000000 1.456275 0.000000 31.489047 0.000002 -0.000000 0.000002 1.471446 -0.000002 -1.133465 -73.819079 0.625745 0.000001 0.917755 0.000000 123.512742 -0.000003 -0.629534 0.000001 0.940221 0.000000 1.709738 -5.558024 -0.000001 0.113773 1.960660 -88.303889 63.085198 -0.000003 -0.669733 -0.113771 0.388340 0.227049 2.956350 68.567292 
0.000000 0.000000 0.000000 -0.000000 1.019410 66.185298 -0.000000 0.000000 1.456275 -0.000000 33.740523 0.000001 -0.000000 0.000002 1.471445 -0.000005 -1.133462 -75.991489 0.625745 0.000001 0.917755 0.000004 123.173992 -0.000001 -0.629534 0.000001 0.940221 -0.000002 1.709734 -5.721378 -0.000001 0.113772 1.960661 -88.303889 62.293566 -0.000001 -0.669733 -0.113771 0.388340 0.240384 2.924345 66.613264 
0.000000 0.000000 0.000000 -0.000000 1.019410 68.074248 -0.000000 -0.000000 1.456275 -0.000001 35.987130 -0.000000 -0.000000 0.000002 1.471445 -0.000005 -1.133469 -78.159193 0.625745 0.000000 0.917755 0.000006 122.835953 -0.000002 -0.629534 0.000001 0.940221 -0.000000 1.709733 -5.884374 -0.000001 0.113772 1.960661 -88.303889 61.503634 -0.000005 -0.669733 -0.113771 0.388340 0.252593 2.891972 64.663525 
0.000000 0.000000 0.000000 -0.000000 1.019410 69.964742 -0.000000 0.000000 1.456275 -0.000000 38.235563 0.000001 -0.000000 0.000002 1.471446 -0.000007 -1.133464 -80.328660 0.625745 0.000000 0.917755 0.000008 122.497640 -0.000001 -0.629534 0.000001 0.940221 0.000002 1.709739 -6.047508 -0.000001 0.113773 1.960660 -88.303889 60.713060 -0.000003 -0.669733 -0.113771 0.388340 0.263696 2.859180 62.712263 
0.000000 0.000000 0.000000 -0.000000 1.019410 71.856254 -0.000000 0.000000 1.456275 0.000000 40.485209 -0.000000 -0.000000 0.000002 1.471446 -0.000004 -1.133464 -82.499307 0.625744 0.000000 0.917755 0.000007 122.159149 -0.000002 -0.629533 0.000001 0.940221 -0.000004 1.709735 -6.210723 -0.000001 0.113772 1.960661 -88.303896 59.922069 -0.000003 -0.669733 -0.113771 0.388340 0.273686 2.826011 60.760010 
0.000000 0.000000 0.000000 -0.000000 1.019410 73.747246 -0.000000 0.000000 1.456275 0.000001 42.734240 0.000002 -0.000000 0.000002 1.471446 -0.000004 -1.133467 -84.669354 0.625745 0.000000 0.917755 -0.000000 121.820768 -0.000002 -0.629533 0.000001 0.940220 0.000001 1.709740 -6.373899 -0.000002 0.113772 1.960660 -88.303882 59.131284 -0.000011 -0.669733 -0.113771 0.388340 0.282531 2.792531 58.808345 
0.000000 0.000000 0.000000 -0.000000 1.019410 75.638259 -0.000000 0.000000 1.456275 0.000001 44.983291 0.000001 -0.000000 0.000002 1.471446 -0.000004 -1.133468 -86.839421 0.625745 0.000001 0.917755 0.000002 121.482359 -0.000004 -0.629534 0.000001 0.940221 0.000003 1.709734 -6.537077 -0.000001 0.113772 1.960661 -88.303896 58.340498 0.000004 -0.669733 -0.113771 0.388339 0.290232 2.758765 56.856738 
0.000000 0.000000 0.000000 -0.000000 1.019410 77.529798 -0.000000 0.000000 1.456275 0.000001 47.232978 0.000001 -0.000000 0.000002 1.471446 -0.000007 -1.133463 -89.010096 0.625745 0.000000 0.917754 -0.000000 121.143869 -0.000003 -0.629534 0.000001 0.940222 0.000001 1.709733 -6.700296 -0.000001 0.113773 1.960660 -88.303896 57.549494 -0.000006 -0.669733 -0.113771 0.388340 0.296776 2.724752 54.904633 
0.000000 0.000000 0.000000 -0.000000 1.019410 79.420265 -0.000000 0.000000 1.456275 -0.000001 49.481374 -0.000002 -0.000000 0.000002 1.471446 -0.000006 -1.133462 -91.179535 0.625744 0.000000 0.917755 0.000003 120.805570 -0.000002 -0.629533 0.000001 0.940221 0.000001 1.709741 -6.863424 -0.000001 0.113772 1.960661 -88.303889 56.758933 0.000001 -0.669733 -0.113771 0.388340 0.302159 2.690552 52.953709 
0.000000 0.000000 0.000000 -0.000000 1.019410 81.309120 -0.000000 0.000000 1.456275 -0.000000 51.727857 -0.000000 -0.000000 0.000002 1.471446 -0.000006 -1.133468 -93.347116 0.625745 0.000000 0.917755 0.000006 120.467557 -0.000001 -0.629533 0.000001 0.940221 -0.000000 1.709736 -7.026415 -0.000001 0.113772 1.960660 -88.303882 55.969046 -0.000005 -0.669733 -0.113771 0.388340 0.306364 2.656223 51.004499 
0.000000 0.000000 0.000000 -0.000000 1.019410 83.202270 -0.000000 0.000000 1.456275 0.000000 53.979453 0.000000 -0.000000 0.000002 1.471446 -0.000005 -1.133464 -95.519649 0.625745 0.000001 0.917755 0.000007 120.128780 -0.000003 -0.629534 0.000001 0.940221 -0.000002 1.709731 -7.189771 -0.000001 0.113772 1.960660 -88.303889 55.177366 -0.000002 -0.669733 -0.113771 0.388340 0.309405 2.621685 49.050901 
